<svg viewBox="0 0 243 71" xmlns="http://www.w3.org/2000/svg"><path d="M55.9334512,34.698395 C56.5856372,34.5736075 57.012614,33.9438075 56.8870326,33.2905575 C56.7614512,32.63647 56.1293581,32.2085075 55.4796837,32.3374825 C53.4469395,32.7277575 50.7561488,33.5702825 47.748893,34.66322 C58.0524279,21.7347325 70.8801488,6.5257325 71.0593116,6.31217 C71.4193116,5.88672 71.4394047,5.268645 71.1078698,4.8222575 C70.7746605,4.374195 70.1760558,4.21172 69.6695442,4.42947 L32.336707,20.3612325 C31.7263814,20.621695 31.4417302,21.328545 31.7021023,21.9390825 C31.964986,22.55297 32.6741023,22.8352075 33.2794047,22.5739075 L65.9866605,8.61697 C60.9424744,14.6494825 51.0039628,26.6190325 43.3443349,36.3558075 C31.4994977,41.093545 17.3238698,48.1377575 16.4941953,48.55232 C15.9014512,48.8479575 15.6594977,49.5698825 15.9558698,50.165345 C16.1660093,50.5866075 16.5913116,50.8311575 17.0325209,50.8311575 C17.2125209,50.8311575 17.3950326,50.7892825 17.5683349,50.70302 C17.7491721,50.614245 29.388893,44.8246075 40.3596837,40.1865325 C38.4893581,42.6186325 36.852614,44.8095325 35.6051721,46.58587 C20.3277767,68.3231825 17.0274977,68.91362 16.3845209,68.57192 C13.9055442,67.2947325 5.17093953,59.5076575 2.01466047,56.61577 C1.52573023,56.1660325 0.763032558,56.1995325 0.315962791,56.68947 C-0.131944186,57.180245 -0.100130233,57.9398575 0.389637209,58.3887575 C0.862660465,58.8225825 12.012614,69.025845 15.2819163,70.7100575 C15.6410791,70.8943075 16.0312186,71.00067 16.4741023,71.00067 C19.4713116,71.00067 24.7993116,66.1423325 37.5734512,47.96942 C39.3466605,45.4443575 41.9076837,42.0776075 44.8320558,38.349895 C49.2324279,36.60287 53.2284279,35.2184825 55.9334512,34.698395"></path><path d="M76.9262293,39.8681821 C77.6570365,39.0545346 78.1712146,38.7055854 78.4670778,38.5549414 C78.4106025,39.120069 78.0346624,40.2801124 76.8368803,41.7737854 C76.1086018,42.6827556 75.3457638,43.6087477 74.5483663,44.5245267 C75.056644,42.8036112 75.8675281,41.0478007 76.9262293,39.8681821 M81.1315318,45.7535089 L75.6458415,49.3408773 C74.917563,49.8157887 74.4033849,49.934091 74.2904343,49.800469 C74.1134222,49.5919506 74.0046861,49.2242772 73.9600117,48.7485147 C75.6922018,46.9858955 77.2709815,45.1177404 78.7182664,43.3117153 C80.9587343,40.5184192 81.5327594,37.7106545 80.1175052,36.4859277 C79.5358939,35.9863346 77.8947385,35.1514097 75.1341921,38.2264185 C73.1449129,40.4401184 71.637781,44.5313355 71.5366312,47.7271999 C69.022216,50.1715467 66.198451,52.3146057 63.0097038,53.6031646 C62.6691662,53.7410422 62.4053338,53.8295561 62.205563,53.8874306 C62.3303144,53.4474141 62.5410431,52.87718 62.7003541,52.4465256 C63.4446479,50.4285777 64.4654179,47.6642188 62.5435719,46.2096962 C61.5674764,45.4700941 62.8124617,40.4945885 65.1549223,35.7710073 C65.4280268,35.2211995 65.2518575,34.5505361 64.7452657,34.2083956 C64.2386738,33.8628508 63.5584415,33.9556202 63.1588998,34.4228717 C63.1588998,34.4228717 55.8761148,42.8887208 51.3926503,48.1357258 C47.125815,53.1197423 37.7863176,57.6279963 37.6919111,57.6731043 C37.088384,57.9624769 36.830452,58.6910148 37.1170431,59.3012504 C37.3235573,59.7429691 37.7576585,60 38.2119896,60 C38.3847872,60 38.5617993,59.9617007 38.7295394,59.8816977 C39.1316098,59.6893501 48.6219889,55.1096041 53.2243045,49.7340836 C55.3358063,47.2625016 58.0693795,44.0759993 60.3680085,41.3984522 C59.6346725,44.1662154 59.461032,46.9314254 61.0912295,48.163812 C61.5649477,48.5229744 60.7995809,50.5962435 60.43207,51.5920255 C59.777968,53.3614535 59.2140579,54.8900214 60.2348279,55.8960165 C61.1578197,56.8058378 62.6093192,56.398163 63.9090941,55.8730369 C66.9140858,54.6593744 69.586969,52.7912193 71.9867478,50.6379472 C72.1114992,50.9179577 72.2640668,51.1690309 72.4452935,51.383507 C72.9299696,51.961401 74.3376375,53.1095291 76.9624746,51.392018 L82.448165,47.8063518 C83.0087034,47.4395295 83.1680143,46.6829054 82.8064038,46.1152246 C82.4422646,45.5535014 81.6954419,45.3900911 81.1315318,45.7535089"></path><path d="M96.2671448,40.5886307 C92.1991491,43.5761019 88.8233842,45.407505 87.4646222,45.6581788 C87.5607884,45.3555562 87.7713592,44.8575069 88.2289776,44.0848708 C90.6803865,39.950402 94.0884831,38.8949333 96.5622755,38.7506309 C96.4346066,39.3797892 96.3293212,39.9949296 96.2671448,40.5886307 M99.5227019,36.56713 C99.6810445,35.9420947 99.8410452,35.3046905 99.9910976,34.6623389 C101.552969,27.9815518 107.212681,18.6035475 113.777682,18.3710145 C114.781624,18.326487 115.507015,18.5029481 115.638829,18.8138166 C116.102251,19.8989704 114.207943,24.3088506 104.162721,33.9424762 C103.048519,35.0119629 101.926857,36.0253777 100.817629,36.9736504 C100.709028,36.8887182 100.581359,36.8227514 100.440426,36.7806975 C100.423016,36.7749254 100.088093,36.678449 99.5202149,36.5836217 C99.5218729,36.5786742 99.5218729,36.5729021 99.5227019,36.56713 M134.738595,39.5933567 C130.929254,39.8159946 127.33297,40.6958268 123.16715,41.7141891 C118.786614,42.7853249 113.82162,43.999114 107.219313,44.8121547 C102.936602,45.344012 100.237316,45.0174763 99.2002136,43.8523378 C98.7583465,43.3559377 98.5859106,42.6377242 98.5817655,41.7735592 C101.539705,39.5150211 104.248939,37.1509362 105.816613,35.6485424 C115.042765,26.799097 119.084232,20.8233301 117.829926,17.8861586 C117.262048,16.5577523 115.86598,15.9467349 113.691464,16.0036312 C105.585317,16.292236 99.3411468,26.9871024 97.6723318,34.1263587 C97.5247664,34.755517 97.3680818,35.3797278 97.2138843,35.9932189 C97.1790655,36.1284509 97.1459048,36.2636828 97.111086,36.3980901 C93.9989491,36.4285998 89.3647335,37.5096306 86.1788139,42.8818014 C85.6150811,43.8325478 84.1170439,46.3582514 85.7162214,47.6132697 C86.0544611,47.878786 86.4963281,48 87.0244132,48 C89.1997587,47.9991754 92.809307,45.9377131 96.3790623,43.3996407 C96.5581304,44.1467147 96.8880799,44.8269972 97.4153359,45.4215229 C99.0476741,47.2578736 102.264267,47.8078717 107.511128,47.1638709 C114.253539,46.3318647 119.290657,45.1007594 123.736686,44.0131319 C127.787272,43.0228054 131.286561,42.16936 134.879529,41.9574417 C135.535282,41.9186862 136.036839,41.358793 135.997875,40.7057218 C135.95974,40.0534751 135.413417,39.576865 134.738595,39.5933567"></path><path d="M207.625867,1.64283192 C206.393859,-0.639199459 202.843611,0.0485244934 201.67991,0.276643454 C193.702265,1.83054604 180.274298,14.1733812 172.231679,22.2030003 C173.934331,18.3056173 173.98931,15.2373752 172.371623,13.0933936 C170.404909,10.4847565 166.208253,9.61857787 160.238139,10.5882939 C151.105955,12.0655957 140.931688,18.208814 140.07453,22.761092 C139.793809,24.2552291 140.359416,25.1853821 140.883374,25.7022273 C142.760124,27.555799 147.230004,27.4665717 156.82367,25.3874063 C162.169034,24.2299761 163.931662,24.4580951 164.411471,24.5860437 C164.573906,24.9017065 164.875452,25.142452 165.247803,25.2131604 C165.914203,25.3326914 166.523127,24.9059153 166.646411,24.2510203 C166.737208,23.763637 166.558946,23.242583 166.170768,22.8578953 C165.410238,22.1087223 163.605959,21.4504602 156.323037,23.0228817 C146.347024,25.1870656 143.326564,24.7375618 142.556039,23.9715535 C142.481069,23.8991615 142.325297,23.7451181 142.426091,23.2122793 C143.015855,20.0665946 152.293814,14.322374 160.617154,12.9755462 C165.521027,12.1842849 169.10876,12.7558449 170.469883,14.5589106 C171.807681,16.3341981 170.930532,19.2778586 169.957587,21.4369919 C165.982509,30.2637647 146.666063,55.7987783 146.471141,56.0572009 C146.068801,56.5858308 146.169594,57.3442632 146.694385,57.7499951 C146.910132,57.9183486 147.165863,58 147.419928,58 C147.779784,58 148.135475,57.8375389 148.370382,57.5252432 C148.988468,56.7095706 160.356425,41.6747634 167.399443,30.675389 C168.109993,29.9018047 191.320716,4.7556877 202.131396,2.64958571 C204.500449,2.18577188 205.376765,2.5283712 205.52504,2.80026207 C205.678312,3.08562121 206.637095,6.0099211 192.996713,20.423504 C183.892019,30.034804 177.627022,40.1882022 176.238411,47.5814451 C176.11596,48.2380237 176.542456,48.870191 177.191363,48.9947725 C177.267999,49.0090826 177.342969,49.0166585 177.41544,49.0166585 C177.979382,49.0166585 178.480848,48.6117684 178.590804,48.0326324 C179.895283,41.0796338 185.926206,31.3833153 194.726022,22.0935705 C208.236456,7.81887921 208.716264,3.66644071 207.625867,1.64283192"></path><path d="M194.730006,35.8326 C193.479618,40.8922364 191.005588,42.7135091 190.219916,42.6096 C189.958304,42.5686909 189.639021,41.8904182 189.751857,40.5093273 C190.125469,35.9168727 194.168334,35.4267818 194.628036,35.3866909 C194.704931,35.3809636 194.778484,35.3686909 194.848693,35.3482364 L194.730006,35.8326 Z M202.414543,32.8200545 C205.118424,30.0349636 207.299916,29.3926909 208.074722,29.3926909 L208.078901,29.3926909 C207.825648,29.9727818 206.757469,31.3309636 203.655737,33.2062364 C202.582543,33.8550545 201.736693,34.2306 201.075558,34.4367818 C201.501827,33.8108727 201.999976,33.2479636 202.414543,32.8200545 Z M241.293588,38.3452364 C231.596394,35.7671455 226.188633,37.0230545 219.928334,38.4728727 C217.525349,39.0284182 215.04129,39.6044182 212.071618,40.0372364 C205.279737,41.0305091 201.288693,39.6903273 200.353409,37.9296 C200.19711,37.6342364 200.123558,37.3216909 200.114364,37.0017818 C201.467558,36.9273273 203.053946,36.3325091 204.917827,35.2050545 C208.744215,32.8920545 210.73514,30.6535091 210.527021,28.9009636 C210.433409,28.1007818 209.888454,27.4634182 209.070185,27.1950545 C207.026603,26.5298727 203.649051,28.1376 200.674364,31.2025091 C199.68726,32.2186909 198.996036,33.1571455 198.530484,34.0137818 C198.350782,33.7527818 198.222066,33.4345091 198.0992,33.1039636 C197.964633,32.7357818 197.612752,31.9045091 196.691678,31.9290545 C195.962006,31.9683273 195.693707,32.2285091 195.357707,33.3674182 C195.117827,33.1416 194.777648,33.0147818 194.43329,33.0442364 C192.176573,33.2201455 187.7952,34.9653273 187.358066,40.3227818 C187.042961,44.1878727 189.179319,44.8268727 189.84129,44.9307818 C189.9792,44.9520545 190.118782,44.9618727 190.262543,44.9618727 C192.607021,44.9618727 195.656096,42.0867818 197.063618,36.3840545 L197.150543,36.0281455 C197.321051,36.1836 197.512454,36.3284182 197.728931,36.4585091 C197.62529,37.4992364 197.871857,38.3517818 198.223737,39.0136909 C199.87114,42.1121455 205.308155,43.3942364 212.426006,42.3608727 C215.494304,41.9141455 218.030185,41.3275091 220.483319,40.7588727 C226.670901,39.3262364 231.558782,38.1946909 240.663379,40.6124182 C241.301946,40.7858727 241.962245,40.4136 242.136931,39.7876909 C242.310782,39.1601455 241.932991,38.5146 241.293588,38.3452364 Z"></path></svg>
