<svg viewBox="0 0 143 27" xmlns="http://www.w3.org/2000/svg"><path d="M74.59829,1.90092933 L77.0981162,1.90092933 L90.2358891,1.90092933 L91.2876408,4.41412345 C89.965105,3.00464663 88.4345544,2.88308857 85.2063117,2.88308857 L77.0981162,2.88308857 L77.0981162,12.2624484 L86.0157445,12.2624484 L85.6829209,13.2908444 L85.6836508,13.2908444 L85.3464479,14.3349013 C85.0566871,13.4944355 84.1830252,13.3311152 82.7407897,13.2997935 L77.0981162,13.2997935 L77.0981162,23.0624713 L84.6311692,23.0624713 C87.8594119,23.0624713 90.3767552,22.7246443 91.5365286,21.1719826 L90.4285764,24.0446306 L74.59829,24.0446306 L74.59829,1.90092933 Z M72.5706937,2.30587425 L72.5706937,23.6941257 L71,26 L92,26 L92,18.1486921 L89.2790213,20.6163951 L79.046156,20.6163951 L79.046156,15.3185521 L85.9631934,15.3185521 L87.8499235,10.4808398 L79.046156,10.4808398 L79.046156,5.03011703 L89.3731753,5.03011703 L92,7.2412804 L92,0 L71,0 L72.5706937,2.30587425 Z"></path><path d="M64.335375,14.569127 L66.904125,14.569127 L66.904125,23.0252351 C65.585625,23.8914243 62.424375,25.0808838 59.197125,25.0808838 C52.720875,25.0808838 47.095875,21.4876946 47.095875,13.8072892 C47.095875,7.80526216 51.439125,2.58477568 59.072625,2.58477568 C62.174625,2.58477568 64.300125,3.33128919 66.541875,4.07196486 L67.003875,6.93615405 C66.093375,4.85788378 62.427375,3.28020811 59.158125,3.28020811 C54.784875,3.28020811 49.464375,6.47861351 49.464375,13.6474784 C49.464375,21.5811 54.037125,24.3351 59.274375,24.3351 C62.304375,24.3351 63.967125,22.9653973 64.335375,22.3203162 L64.335375,17.7018568 C64.335375,15.7381541 64.177125,14.8880189 62.873625,14.569127 L64.335375,14.569127 Z M62.283375,16.0242081 L62.283375,21.3154784 C61.135125,21.6825324 60.119625,21.8313973 58.823625,21.8313973 C55.522125,21.8313973 52.338375,19.1350459 52.338375,13.7664243 C52.338375,8.42918108 55.288875,5.70218108 59.106375,5.70218108 C62.745375,5.70218108 65.404125,6.84420811 67.921875,8.92393784 L67.921875,0.259856757 L66.087375,1.69231622 C64.111875,0.9531 61.789125,0.533505405 58.987125,0.533505405 C51.311625,0.533505405 45.393375,5.40955946 45.393375,13.7664243 C45.393375,22.1240189 50.569875,27.000073 58.417875,27.000073 C62.788125,27.000073 65.724375,26.1973703 68.936625,24.2380459 L68.936625,13.7664243 L60.668625,13.7664243 L62.283375,16.0242081 Z"></path><path d="M20.3206413,21.1719826 L19.1798597,24.0446306 L3.67109218,24.0446306 L3.67109218,5.09798073 C3.67109218,3.09413722 3.51177355,2.22607848 2.20641283,1.90092933 L3.67109218,1.90092933 L6.24498998,1.90092933 L7.53381764,1.90092933 C6.24574148,2.22160395 6.24498998,3.07400184 6.24498998,5.02191372 L6.24498998,23.0624713 L14.002004,23.0624713 C17.3259018,23.0624713 19.126503,22.7253901 20.3206413,21.1719826 Z M8.28381764,20.6163951 L8.28381764,2.30587425 L9.9003006,0 L0,0 L1.61573146,2.30587425 L1.61573146,23.6941257 L0,26 L21,26 L21,18.1486921 L18.1991483,20.6163951 L8.28381764,20.6163951 Z"></path><path d="M114.183534,1.90092933 L115.220801,1.90092933 L116.659688,1.90092933 C115.376576,2.22607848 115.220801,3.09488297 115.220801,5.10021799 L115.220801,23.9297843 L113.238549,23.9297843 L98.5647167,3.31562643 L98.5647167,20.7282584 C98.5647167,22.7350849 98.7204914,23.6046352 100.002864,23.9297843 L98.5647167,23.9297843 L97.5267106,23.9297843 L96.0885627,23.9297843 C97.3716741,23.6046352 97.5267106,22.7350849 97.5267106,20.7282584 L97.5267106,1.90092933 L100.798718,1.90092933 L114.183534,20.488871 L114.183534,5.09276044 C114.182795,3.09339146 114.025544,2.22607848 112.744648,1.90092933 L114.183534,1.90092933 Z M112.341553,2.30587425 L112.341553,14.7823543 L101.964445,0 L94.0553702,0 L94,0 L95.5880164,2.18282469 L95.5880164,23.6941257 L94,26 L102.247202,26 L100.659924,23.6941257 L100.659924,9.40695273 L112.306854,26 L117.412722,26 L117.412722,2.30587425 L119,0 L110.753536,0 L112.341553,2.30587425 Z"></path><path d="M138.056686,2.90546122 L133.180233,2.90546122 L133.180233,20.1130106 C133.180233,22.3778683 133.367006,23.4465351 134.644622,23.9059201 L132.763808,23.9059201 L131.236192,23.9059201 L129.356105,23.9059201 C130.633721,23.4465351 130.819767,22.3778683 130.819767,20.1130106 L130.819767,2.90546122 L125.944041,2.90546122 C123.609012,2.90546122 122.398983,3.02478201 121.587936,4.49242772 L122.294331,1.92330197 L131.571948,1.92330197 L132.428052,1.92330197 L141.706395,1.92330197 L142.412791,4.49242772 C141.601017,3.02478201 140.391715,2.90546122 138.056686,2.90546122 Z M121,0 L121,7.49856586 L123.710029,5.03086278 L128.776163,5.03086278 L128.776163,23.6941257 L127.212936,26 L136.787791,26 L135.224564,23.6941257 L135.224564,5.03086278 L140.290698,5.03086278 L143,7.49856586 L143,0 L121,0 Z"></path><path d="M25.5975601,1.90092933 L28.0981162,1.90092933 L41.2358891,1.90092933 L42.2876408,4.41412345 C40.965105,3.00464663 39.4338246,2.88308857 36.2063117,2.88308857 L28.0981162,2.88308857 L28.0981162,12.2624484 L37.0157445,12.2624484 L36.6829209,13.2908444 L36.6836508,13.2908444 L36.3464479,14.3349013 C36.0566871,13.4944355 35.1830252,13.3311152 33.7407897,13.2997935 L28.0981162,13.2997935 L28.0981162,23.0624713 L35.6311692,23.0624713 C38.8594119,23.0624713 41.3760253,22.7246443 42.5365286,21.1719826 L41.4278465,24.0446306 L25.5975601,24.0446306 L25.5975601,1.90092933 Z M23.5706937,2.30587425 L23.5706937,23.6941257 L22,26 L43,26 L43,18.1486921 L40.2790213,20.6163951 L30.046156,20.6163951 L30.046156,15.3185521 L36.9631934,15.3185521 L38.8491937,10.4808398 L30.046156,10.4808398 L30.046156,5.03011703 L40.3724454,5.03011703 L43,7.2412804 L43,0 L22,0 L23.5706937,2.30587425 Z"></path></svg>
