<svg viewBox="0 0 262 84" xmlns="http://www.w3.org/2000/svg"><path d="M12.1791,33.2857 C6.8051,33.6357 4.2821,33.5787 3.1571,33.4157 C3.6661,32.9157 4.5641,32.1847 5.8441,31.2277 C11.4101,27.0617 30.9511,11.4927 31.1481,11.3377 C31.7321,10.8717 31.8281,10.0197 31.3621,9.4377 C30.8981,8.8507 30.0471,8.7577 29.4631,9.2207 C29.2661,9.3787 9.7571,24.9227 4.2231,29.0597 C1.2541,31.2847 -0.5039,32.7577 0.1281,34.4717 C0.7901,36.2607 3.3041,36.5707 12.3541,35.9837 C26.7231,35.0497 31.6381,35.4677 33.0561,36.0857 C32.8921,36.2487 32.6271,36.4807 32.1941,36.7827 C25.6921,41.3297 12.9371,50.8527 12.8101,50.9487 C12.2111,51.3977 12.0891,52.2447 12.5361,52.8437 C12.8021,53.1987 13.2081,53.3857 13.6201,53.3857 C13.9011,53.3857 14.1841,53.2977 14.4271,53.1167 C14.5551,53.0207 27.2751,43.5227 33.7431,38.9987 C34.4261,38.5217 36.5061,37.0647 35.8621,35.2327 C35.0681,32.9727 31.1871,32.0527 12.1791,33.2857"></path><path d="M121.2319,36.3482 C117.5739,37.5332 115.0619,36.7882 113.8679,36.2322 C113.8009,36.1062 113.7029,35.9802 113.5869,35.8342 C113.3619,35.5552 112.7289,35.0532 111.7109,35.6402 C111.6469,35.6672 111.5859,35.6942 111.5259,35.7322 C111.4969,35.7522 111.4759,35.7502 111.4459,35.7722 C108.9319,37.6212 103.4349,39.7802 99.3959,37.7252 C95.6509,35.8232 93.5669,37.7762 91.8949,39.3542 C91.0729,40.1242 90.2239,40.9232 89.1299,41.4482 C86.8249,42.5632 86.2849,41.9682 84.6859,40.2122 C84.4009,39.8992 84.0999,39.5682 83.7719,39.2322 C80.8559,36.2492 75.3399,39.6532 69.8179,43.7742 C67.4879,45.5152 66.3209,45.9422 65.8509,46.0432 C65.8539,45.5432 66.0529,44.2342 67.4319,41.2482 C68.9169,38.0222 68.9109,35.7072 67.4189,34.3692 C63.9639,31.2732 55.1679,36.3002 53.4389,37.3392 L50.7869,38.9482 C48.9159,40.0882 46.6419,41.4732 44.8629,42.4562 C50.3989,35.7022 68.4139,16.4462 68.6089,16.2372 C69.1199,15.6932 69.0909,14.8372 68.5459,14.3272 C67.9989,13.8182 67.1429,13.8442 66.6359,14.3912 C65.7679,15.3172 45.3609,37.1302 41.6239,42.2022 C40.9779,43.0772 39.7749,44.7112 40.8449,45.8762 C42.0769,47.2262 43.9579,46.2722 52.1939,41.2562 L54.8309,39.6592 C60.4709,36.2692 64.7119,35.5772 65.6139,36.3852 C65.9669,36.7012 66.0109,37.8672 64.9759,40.1162 C62.8849,44.6522 62.6089,47.0842 64.0559,48.2592 C65.4799,49.4132 67.7519,48.6942 71.4359,45.9422 C78.6569,40.5482 81.0739,40.3392 81.8389,41.1232 C82.1429,41.4342 82.4209,41.7392 82.6859,42.0332 C84.4019,43.9182 86.1759,45.8692 90.3009,43.8872 C91.7719,43.1782 92.8199,42.1932 93.7459,41.3242 C95.3759,39.7882 96.1239,39.0912 98.1689,40.1362 C100.4669,41.3042 103.0379,41.4592 105.4779,41.0582 C105.2539,41.2512 105.0279,41.4452 104.7979,41.6432 C97.7739,47.6862 87.1599,56.8172 81.3819,62.2892 C71.7869,71.3812 67.7559,75.9112 67.5899,76.0982 C67.0939,76.6572 67.1469,77.5122 67.7059,78.0052 C67.9619,78.2352 68.2829,78.3472 68.6019,78.3472 C68.9739,78.3472 69.3469,78.1922 69.6129,77.8932 C69.6539,77.8482 73.7489,73.2462 83.2419,64.2542 C88.9719,58.8242 99.5579,49.7182 106.5609,43.6922 C109.5249,41.1442 111.3289,39.5862 112.4369,38.5352 C114.0099,39.3342 117.3479,40.4612 122.0689,38.9162 C125.5339,37.7902 126.3999,38.1432 126.5859,38.2762 C126.8239,38.4482 126.9399,39.1022 126.9319,40.2232 C126.9269,40.9682 127.5279,41.5782 128.2739,41.5842 L128.2839,41.5842 C129.0259,41.5842 129.6299,40.9852 129.6359,40.2402 C129.6479,38.6482 129.4779,37.0392 128.1809,36.0942 C126.8449,35.1152 124.7669,35.1932 121.2319,36.3482"></path><path d="M102.5019,30.4151 C102.6739,30.4151 102.8489,30.3811 103.0179,30.3131 L105.8139,29.1591 C106.5039,28.8741 106.8319,28.0831 106.5459,27.3921 C106.2609,26.7011 105.4699,26.3791 104.7809,26.6581 L101.9849,27.8121 C101.2949,28.0981 100.9679,28.8881 101.2529,29.5801 C101.4669,30.1021 101.9709,30.4151 102.5019,30.4151"></path><path d="M114.0756,29.1959 L114.0836,29.1959 L117.5306,29.1739 C118.2766,29.1679 118.8776,28.5579 118.8736,27.8129 C118.8676,27.0649 118.2826,26.5109 117.5136,26.4689 L114.0666,26.4919 C113.3206,26.4979 112.7196,27.1069 112.7236,27.8519 C112.7286,28.5969 113.3326,29.1959 114.0756,29.1959"></path><path d="M136.3183,20.2457 C135.7473,20.7647 133.1373,21.4957 131.0573,21.8487 C130.3203,21.9727 129.8253,22.6697 129.9503,23.4067 C130.0623,24.0667 130.6333,24.5327 131.2813,24.5327 C131.3563,24.5327 131.4323,24.5277 131.5083,24.5137 C132.7033,24.3127 136.7093,23.5507 138.1413,22.2387 C138.6933,21.7357 138.7313,20.8807 138.2273,20.3297 C137.7253,19.7737 136.8663,19.7437 136.3183,20.2457"></path><path d="M204.3828,31.4962 C204.3608,31.5162 201.9888,33.6752 199.3708,35.0332 C198.7118,35.3692 197.7898,34.6322 196.4638,33.4552 C195.1548,32.2952 193.6608,30.9912 191.9038,31.2762 C191.1998,31.3972 190.3298,31.6882 189.3238,32.0242 C186.4358,32.9952 182.4798,34.3182 179.6638,32.6472 C177.5128,31.3702 175.4258,31.2082 173.3828,31.6042 C179.8618,20.8502 188.3108,8.1552 188.4098,8.0072 C188.6808,7.5982 188.7118,7.0762 188.4888,6.6412 C188.2658,6.2032 187.8238,5.9242 187.3358,5.9042 L178.8768,5.5882 C170.3718,5.2972 156.3008,7.9362 155.7058,8.0492 C154.9728,8.1872 154.4928,8.8962 154.6328,9.6302 C154.7758,10.3642 155.4918,10.8522 156.2148,10.7032 C156.3558,10.6772 170.5488,7.9872 178.7758,8.2922 L184.8308,8.5172 C181.8728,13.0092 174.6088,24.1482 169.4148,32.9822 C168.2418,33.5502 167.0818,34.2062 165.9328,34.8632 L165.1618,35.3012 C161.6908,37.2712 150.1448,35.9582 145.9878,35.2872 C145.2418,35.1712 144.5558,35.6682 144.4378,36.4072 C144.3198,37.1442 144.8198,37.8382 145.5568,37.9572 C146.5688,38.1212 152.5348,39.0462 158.0798,39.0462 C161.4378,39.0462 164.6418,38.7042 166.4968,37.6552 L166.8548,37.4512 C160.9318,48.0262 157.2318,56.0202 157.1928,56.1032 C156.8808,56.7832 157.1758,57.5842 157.8548,57.8982 C158.0378,57.9832 158.2298,58.0222 158.4188,58.0222 C158.9318,58.0222 159.4198,57.7322 159.6488,57.2382 C159.6878,57.1502 163.7328,48.4122 170.1408,37.1212 C170.5128,36.4662 170.9058,35.7862 171.3098,35.0932 C173.9018,33.9382 176.0328,33.6372 178.2838,34.9742 C182.1608,37.2792 186.9898,35.6622 190.1858,34.5892 C191.0618,34.2932 191.8098,34.0362 192.3578,33.9402 C192.8198,33.8702 193.8998,34.7952 194.6688,35.4752 C196.1848,36.8222 198.2578,38.6712 200.6168,37.4322 C203.5488,35.9112 206.1018,33.5872 206.2088,33.4892 C206.7588,32.9862 206.7968,32.1312 206.2928,31.5802 C205.7878,31.0252 204.9318,30.9942 204.3828,31.4962"></path><path d="M260.9023,32.4557 C260.0063,31.1857 258.3383,31.9257 255.4713,33.3447 C252.7423,34.6967 248.8613,34.2007 245.1113,33.7177 C242.6543,33.4047 240.3293,33.1017 238.3913,33.3477 C235.7333,33.6617 231.8963,32.8457 228.5053,32.1147 C226.2333,31.6257 224.0883,31.1637 222.3153,31.0247 C217.3973,30.6917 216.3653,33.6747 215.4643,36.3537 L215.1053,37.3947 C214.8553,38.0787 213.6003,37.6887 213.5493,37.6687 C212.0033,37.1777 210.0423,35.2217 210.9713,31.8547 C212.7913,25.2947 220.1183,1.9957 220.1933,1.7607 C220.4173,1.0467 220.0203,0.2897 219.3083,0.0647 C218.5953,-0.1643 217.8383,0.2367 217.6133,0.9477 C217.5403,1.1847 210.1973,24.5277 208.3663,31.1347 C207.0913,35.7447 209.6633,39.2697 212.7283,40.2467 C214.9603,40.9597 216.9793,40.1617 217.6483,38.3127 L218.0263,37.2147 C218.9093,34.5867 219.2493,33.4717 222.1063,33.7237 C223.6973,33.8447 225.7563,34.2877 227.9363,34.7557 C231.7123,35.5687 235.6153,36.4077 238.7213,36.0287 C240.3363,35.8287 242.4863,36.1057 244.7673,36.3987 C248.2943,36.8507 252.2413,37.3587 255.5123,36.2467 C255.3973,36.3597 255.2753,36.4757 255.1513,36.5967 C250.3863,41.1807 229.5733,61.6207 222.3253,70.4807 C219.0443,74.5007 217.6993,77.8707 218.3263,80.5007 C218.8473,82.6877 220.5073,83.4817 220.6953,83.5657 C220.8723,83.6427 221.0553,83.6827 221.2343,83.6827 C221.7383,83.6827 222.2153,83.3917 222.4483,82.9027 C222.7623,82.2397 222.4763,81.4407 221.8213,81.1077 C221.7953,81.0937 221.1413,80.7527 220.9423,79.8097 C220.7323,78.8127 220.9043,76.4987 224.4183,72.1907 C231.5823,63.4357 252.2853,43.1077 257.0273,38.5437 C260.7003,35.0047 261.8123,33.7487 260.9023,32.4557"></path></svg>
